<svg width="134" height="147" viewBox="0 0 134 147" fill="none" xmlns="http://www.w3.org/2000/svg">
<path d="M54.4315 9.5491C51.18 9.94213 48.175 12.7691 47.1795 16.7298C45.9543 21.6042 48.2303 26.3529 52.2607 27.3353C56.291 28.3184 60.5517 25.1675 61.7768 20.2929C63.002 15.4185 60.726 10.6698 56.6956 9.68736C55.9563 9.50463 55.189 9.45775 54.4318 9.54906L54.4315 9.5491ZM75.5444 11.133C72.5314 11.5381 69.5166 13.6072 67.7039 16.8527C64.9409 21.7984 66.0129 27.6122 70.098 29.8421C74.1836 32.0723 79.7312 29.8679 82.4937 24.9223C85.2567 19.9765 84.1846 14.1628 80.099 11.9329C78.695 11.1661 77.1227 10.9208 75.5447 11.1332L75.5444 11.133ZM95.3832 18.863C92.5394 19.2087 89.6211 20.8144 87.4834 23.4928C83.6836 28.2547 83.7907 34.5989 87.722 37.6703C91.6527 40.7417 97.9208 39.3728 101.721 34.6114C105.52 29.849 105.414 23.505 101.483 20.4336C99.7625 19.0892 97.5947 18.5943 95.3829 18.8631L95.3832 18.863ZM53.5792 33.3339C47.3859 34.0857 41.6402 36.8401 37.0104 42.1944C22.2324 59.2856 8.75778 82.8144 7.87355 117.792C6.84123 158.648 55.656 144.757 47.8662 124.051C37.9155 97.6012 52.1043 84.4312 73.0125 86.3237C82.3071 87.1659 91.1116 82.5442 95.1634 72.1671C100.036 59.6883 89.2345 43.3994 72.8097 36.519C66.4082 33.8365 59.7728 32.5818 53.5795 33.3336L53.5792 33.3339ZM114.35 33.5253C111.461 33.9182 108.505 35.0884 105.849 37.0506C98.766 42.2831 96.5134 51.1723 100.827 56.9055C105.14 62.6383 114.382 63.0415 121.464 57.8091C128.547 52.5766 130.791 43.6886 126.478 37.9554C123.782 34.3722 119.165 32.8709 114.351 33.5253L114.35 33.5253Z" fill="#272932"/>
</svg>
