<svg width="109" height="126" viewBox="0 0 109 126" fill="none" xmlns="http://www.w3.org/2000/svg">
<path d="M14.1357 18.3169L1.96694 67.1563C-4.21581 91.9708 10.3931 117.488 35.0481 123.922C41.0284 125.498 47.2649 125.855 53.3882 124.971C59.5115 124.087 65.3971 121.98 70.6961 118.776C85.4675 109.296 106.206 82.3297 106.206 82.3297C107.038 81.4668 107.686 80.4439 108.112 79.3229C108.538 78.2019 108.732 77.0061 108.683 75.8082C108.634 74.6102 108.343 73.435 107.827 72.3538C107.311 71.2726 106.582 70.3078 105.683 69.5181C102.114 66.3472 96.6343 66.7845 93.3324 70.2173L77.2058 86.9866C76.7525 87.4722 76.1662 87.8128 75.5207 87.9656C74.8752 88.1184 74.1993 88.0766 73.5779 87.8454L73.5137 87.8294C72.5285 87.3952 71.7306 86.6228 71.2635 85.6511C70.7964 84.6793 70.6907 83.572 70.9655 82.5282L84.8486 26.8083C85.14 25.6445 85.1925 24.4337 85.0029 23.2494C84.8134 22.0652 84.3856 20.9322 83.7457 19.9192C83.1058 18.9062 82.2671 18.0343 81.2804 17.3565C80.2937 16.6787 79.1797 16.2091 78.0058 15.9761C73.3398 15.0417 68.8004 18.1435 67.6481 22.768L59.1408 56.9121C58.9953 57.5015 58.7306 58.0547 58.3629 58.5375C57.9952 59.0202 57.5326 59.4222 57.0036 59.7184C56.4747 60.0145 55.8908 60.1986 55.2881 60.2592C54.6855 60.3198 54.0771 60.2555 53.5006 60.0704C52.4221 59.7009 51.5238 58.9357 50.9862 57.9286C50.4486 56.9215 50.3116 55.7473 50.6028 54.6422L61.2754 11.8076C61.5669 10.6437 61.6194 9.43292 61.4298 8.24868C61.2402 7.06443 60.8125 5.93144 60.1726 4.91845C59.5327 3.90546 58.6939 3.03361 57.7072 2.3558C56.7206 1.67799 55.6065 1.20835 54.4327 0.975393C49.7666 0.0409879 45.2272 3.14272 44.075 7.76724L32.3558 54.802C32.2104 55.3914 31.9456 55.9446 31.5779 56.4274C31.2103 56.9101 30.7476 57.3121 30.2187 57.6083C29.6897 57.9045 29.1058 58.0885 28.5032 58.1491C27.9005 58.2097 27.2921 58.1454 26.7156 57.9603C25.6372 57.5908 24.7388 56.8256 24.2012 55.8185C23.6636 54.8115 23.5267 53.6373 23.8178 52.5321L31.2184 22.8299C32.3707 18.2053 29.8132 13.3525 25.2582 11.9723C24.1132 11.6275 22.91 11.5194 21.7216 11.6546C20.5331 11.7898 19.3841 12.1653 18.3441 12.7585C17.3042 13.3517 16.395 14.1503 15.6716 15.1057C14.9482 16.0611 14.4257 17.1536 14.1357 18.3169Z" fill="#272932"/>
</svg>
