<svg width="46" height="60" viewBox="0 0 46 60" fill="none" xmlns="http://www.w3.org/2000/svg">
<path d="M0.681099 44.3537L10.2515 33.7497H6.58217C5.50283 33.7497 4.54807 33.1638 4.09285 32.2193C3.63763 31.2772 3.78737 30.1967 4.48577 29.401L13.8453 18.7502H10.3844C9.29432 18.7502 8.312 18.1233 7.88553 17.1554C7.46386 16.2027 7.66272 15.0941 8.39347 14.3336L21.6032 0.566875C22.3256 -0.188958 23.6732 -0.188958 24.3968 0.566875L37.6077 14.3336C38.3385 15.0941 38.5361 16.2027 38.1157 17.1554C37.6892 18.1233 36.7057 18.7502 35.6156 18.7502H32.1547L41.5154 29.4034C42.2114 30.1979 42.3612 31.2772 41.9072 32.2205C41.4519 33.1638 40.4984 33.7497 39.4178 33.7497H35.7485L45.3189 44.3537C46.0377 45.1493 46.2006 46.2391 45.7454 47.1965C45.2961 48.1399 44.3078 48.7492 43.2285 48.7492H26.8334V51.6143L30.462 57.286C31.0993 58.5329 30.1721 60 28.7477 60H17.2523C15.8279 60 14.9007 58.5329 15.538 57.286L19.1666 51.6143V48.7492H2.77151C1.69217 48.7492 0.703861 48.1399 0.254631 47.1965C-0.200588 46.2391 -0.0376701 45.1493 0.681099 44.3537Z" fill="#272932"/>
</svg>
