<?xml version="1.0" encoding="UTF-8"?>
<svg id="Layer_1" xmlns="http://www.w3.org/2000/svg" viewBox="0 0 28.4 32.46">
    <defs>
        <style>
            .cls-1 {
                fill: #272932;
                stroke-width: 0;
            }
        </style>
    </defs><path
        id="Icon_awesome-building"
        class="cls-1"
        d="m27.64,30.43h-1.27V1.52C26.38.68,25.69,0,24.85,0H3.55c-.84,0-1.52.68-1.52,1.52h0v28.91H.76C.34,30.43,0,30.77,0,31.19v1.27h28.4v-1.27c0-.42-.34-.76-.76-.76ZM8.12,4.82c0-.42.34-.76.76-.76h2.54c.42,0,.76.34.76.76v2.54c0,.42-.34.76-.76.76h-2.54c-.42,0-.76-.34-.76-.76v-2.54Zm0,6.09c0-.42.34-.76.76-.76h2.54c.42,0,.76.34.76.76v2.54c0,.42-.34.76-.76.76h-2.54c-.42,0-.76-.34-.76-.76v-2.54Zm3.3,9.38h-2.54c-.42,0-.76-.34-.76-.76v-2.54c0-.42.34-.76.76-.76h2.54c.42,0,.76.34.76.76v2.54c0,.42-.34.76-.76.76h0Zm4.82,10.15h-4.06v-5.33c0-.42.34-.76.76-.76h2.54c.42,0,.76.34.76.76h0v5.33Zm4.06-10.9c0,.42-.34.76-.76.76h-2.54c-.42,0-.76-.34-.76-.76v-2.54c0-.42.34-.76.76-.76h2.54c.42,0,.76.34.76.76v2.54Zm0-6.09c0,.42-.34.76-.76.76h-2.54c-.42,0-.76-.34-.76-.76v-2.54c0-.42.34-.76.76-.76h2.54c.42,0,.76.34.76.76v2.54Zm0-6.09c0,.42-.34.76-.76.76h-2.54c-.42,0-.76-.34-.76-.76v-2.54c0-.42.34-.76.76-.76h2.54c.42,0,.76.34.76.76v2.54Z"/></svg>