<?xml version="1.0" encoding="UTF-8"?>
<svg id="Layer_1" xmlns="http://www.w3.org/2000/svg" viewBox="0 0 27 36">
    <defs>
        <style>
            .cls-1 {
                fill: #AD97C9;
                stroke-width: 0;
            }
        </style>
    </defs><path
        id="Icon_awesome-tree"
        class="cls-1"
        d="m26.6,26.61l-5.62-6.36h2.15c.62,0,1.19-.35,1.46-.92.27-.56.18-1.22-.23-1.69l-5.49-6.39h2.03c.64,0,1.21-.37,1.47-.96.25-.57.13-1.24-.3-1.69L14.32.34c-.45-.45-1.18-.45-1.64,0,0,0,0,0,0,0l-7.75,8.26c-.43.45-.55,1.12-.3,1.69.26.59.84.96,1.47.96h2.03l-5.49,6.39c-.41.47-.5,1.13-.23,1.69.27.56.84.92,1.46.92h2.15L.4,26.61c-.42.47-.52,1.14-.25,1.71.27.57.85.93,1.48.93h9.62v1.72l-2.13,3.4c-.28.56-.05,1.23.5,1.51.16.08.33.12.51.12h6.75c.62,0,1.12-.5,1.12-1.13,0-.17-.04-.35-.12-.5l-2.13-3.4v-1.72h9.62c.63,0,1.21-.36,1.48-.93.27-.57.17-1.24-.25-1.7Z"/></svg>