<svg width="54" height="42" viewBox="0 0 54 42" fill="none" xmlns="http://www.w3.org/2000/svg">
<path d="M18.0003 21C20.3133 21 22.5498 19.9046 24.3003 17.9168C26.0024 15.9779 27.0419 13.3923 27.2253 10.6384C27.421 7.70079 26.5761 4.99943 24.847 3.03068C23.1179 1.06193 20.7003 0 18.0003 0C15.3195 0 12.8951 1.08102 11.1716 3.045C9.43123 5.02806 8.58411 7.72465 8.77986 10.6372C8.96774 13.3946 10.0061 15.9791 11.7048 17.9156C13.4508 19.9046 15.6862 21 18.0003 21ZM3.16952 42H32.83C33.3069 42.0027 33.778 41.8893 34.207 41.6686C34.6361 41.4479 35.0117 41.1257 35.305 40.7268C35.616 40.2944 35.8308 39.793 35.9333 39.2601C36.0358 38.7272 36.0233 38.1767 35.8967 37.6496C34.9495 33.6155 32.6027 30.2698 29.1108 27.9753C26.0114 25.9397 22.066 24.8182 18.0003 24.8182C13.8547 24.8182 10.0129 25.892 6.8955 27.9264C3.39564 30.2089 1.04553 33.5737 0.102783 37.6568C-0.0222473 38.1842 -0.0333633 38.7348 0.0702705 39.2674C0.173901 39.8 0.389603 40.3009 0.701279 40.7328C0.994228 41.1298 1.36897 41.4504 1.79681 41.67C2.22464 41.8897 2.69421 42.0025 3.16952 42ZM39.2627 21.4772C43.2216 21.4772 46.7023 17.5732 47.0252 12.7754C47.1849 10.3174 46.4627 8.04442 45.0002 6.37755C43.5534 4.72738 41.5127 3.81818 39.2627 3.81818C37.0127 3.81818 34.9877 4.73215 33.5331 6.39187C32.0594 8.07187 31.3394 10.3401 31.5081 12.7778C31.831 17.5744 35.3106 21.4772 39.2627 21.4772ZM31.876 25.2298C33.8549 24.2037 36.4232 23.6906 39.2616 23.6906C42.5758 23.6906 45.7944 24.607 48.3257 26.2703C51.1955 28.1591 53.126 30.9093 53.9056 34.23C54.0197 34.7076 54.0305 35.2064 53.9372 35.6891C53.8439 36.1717 53.6489 36.6258 53.3668 37.0172C53.0991 37.3817 52.7561 37.6762 52.3643 37.8781C51.9725 38.08 51.5422 38.1839 51.1066 38.1818H38.6192C38.4084 38.1817 38.2044 38.1033 38.0426 37.96C37.8808 37.8167 37.7715 37.6178 37.7338 37.3979C37.7215 37.3227 37.7057 37.2475 37.6877 37.1735C36.7337 33.1096 34.4984 29.6756 31.1954 27.1723C31.0739 27.0794 30.9762 26.9559 30.9111 26.8128C30.846 26.6698 30.8156 26.5118 30.8226 26.3531C30.8297 26.1944 30.8739 26.0402 30.9514 25.9042C31.0289 25.7683 31.1371 25.655 31.2662 25.5746C31.4429 25.4649 31.6454 25.3491 31.876 25.2298Z" fill="#272932"/>
</svg>
