<?xml version="1.0" encoding="UTF-8"?>
<svg id="Layer_1" xmlns="http://www.w3.org/2000/svg" viewBox="0 0 36.98 22.82">
    <defs>
        <style>
            .cls-1 {
                fill: #AD97C9;
                stroke-width: 0;
            }
        </style>
    </defs><path
        id="Icon_awesome-credit-card"
        class="cls-1"
        d="m0,19.74c0,1.7,1.38,3.08,3.08,3.08h30.82c1.7,0,3.08-1.38,3.08-3.08v-11.3H0v11.3Zm12.33-4.36c0-.42.35-.77.77-.77h8.73c.42,0,.77.35.77.77v2.57c0,.42-.35.77-.77.77h-8.73c-.42,0-.77-.35-.77-.77v-2.57Zm-8.22,0c0-.42.35-.77.77-.77h4.62c.42,0,.77.35.77.77v2.57c0,.42-.35.77-.77.77h-4.62c-.42,0-.77-.35-.77-.77v-2.57ZM36.98,3.08v3.08H0v-3.08C0,1.38,1.38,0,3.08,0h30.82c1.7,0,3.08,1.38,3.08,3.08h0Z"/></svg>