<?xml version="1.0" encoding="UTF-8"?>
<svg id="Layer_1" xmlns="http://www.w3.org/2000/svg" viewBox="0 0 40.5 36">
    <defs>
        <style>
            .cls-1 {
                fill: #AD97C9;
                stroke-width: 0;
            }
        </style>
    </defs><path
        id="Icon_awesome-boxes"
        class="cls-1"
        d="m39.38,20.25h-5.62v6.75l-2.25-1.5-2.25,1.5v-6.75h-5.62c-.62,0-1.12.5-1.12,1.12v13.5c0,.62.5,1.12,1.12,1.12h15.75c.62,0,1.12-.5,1.12-1.12v-13.5c0-.62-.5-1.12-1.12-1.12Zm-27-4.5h15.75c.62,0,1.12-.5,1.12-1.12V1.12c0-.62-.5-1.12-1.12-1.12h-5.62v6.75l-2.25-1.5-2.25,1.5V0h-5.62c-.62,0-1.12.5-1.12,1.12v13.5c0,.62.5,1.12,1.12,1.12Zm4.5,4.5h-5.62v6.75l-2.25-1.5-2.25,1.5v-6.75H1.12c-.62,0-1.12.5-1.12,1.12v13.5c0,.62.5,1.12,1.12,1.12h15.75c.62,0,1.12-.5,1.12-1.12v-13.5c0-.62-.5-1.12-1.12-1.12Z"/></svg>