<svg width="54" height="32" viewBox="0 0 54 32" fill="none" xmlns="http://www.w3.org/2000/svg">
<path fill-rule="evenodd" clip-rule="evenodd" d="M4.5 0C3.30653 0 2.16193 0.489952 1.31802 1.36207C0.474106 2.23419 0 3.41704 0 4.65041V6.20054H54V4.65041C54 3.41704 53.5259 2.23419 52.682 1.36207C51.8381 0.489952 50.6935 0 49.5 0H4.5ZM54 8.74797H0V27.3496C0 28.583 0.474106 29.7658 1.31802 30.6379C2.16193 31.51 3.30653 32 4.5 32H49.5C50.6935 32 51.8381 31.51 52.682 30.6379C53.5259 29.7658 54 28.583 54 27.3496V8.74797ZM6 23.4743C6 22.8576 6.23705 22.2661 6.65901 21.8301C7.08097 21.394 7.65326 21.1491 8.25 21.1491H12.75C13.3467 21.1491 13.919 21.394 14.341 21.8301C14.7629 22.2661 15 22.8576 15 23.4743C15 24.0909 14.7629 24.6824 14.341 25.1184C13.919 25.5545 13.3467 25.7995 12.75 25.7995H8.25C7.65326 25.7995 7.08097 25.5545 6.65901 25.1184C6.23705 24.6824 6 24.0909 6 23.4743ZM20.25 21.1491C19.6533 21.1491 19.081 21.394 18.659 21.8301C18.2371 22.2661 18 22.8576 18 23.4743C18 24.0909 18.2371 24.6824 18.659 25.1184C19.081 25.5545 19.6533 25.7995 20.25 25.7995H30.75C31.3467 25.7995 31.919 25.5545 32.341 25.1184C32.7629 24.6824 33 24.0909 33 23.4743C33 22.8576 32.7629 22.2661 32.341 21.8301C31.919 21.394 31.3467 21.1491 30.75 21.1491H20.25Z" fill="#272932"/>
</svg>
