<svg width="54" height="46" viewBox="0 0 54 46" fill="none" xmlns="http://www.w3.org/2000/svg">
<path d="M52.5 25.875H45V34.5L42 32.5863L39 34.5V25.875H31.5C30.675 25.875 30 26.5219 30 27.3125V44.5625C30 45.3531 30.675 46 31.5 46H52.5C53.325 46 54 45.3531 54 44.5625V27.3125C54 26.5219 53.325 25.875 52.5 25.875ZM16.5 20.125H37.5C38.325 20.125 39 19.4781 39 18.6875V1.4375C39 0.646875 38.325 0 37.5 0H30V8.625L27 6.71133L24 8.625V0H16.5C15.675 0 15 0.646875 15 1.4375V18.6875C15 19.4781 15.675 20.125 16.5 20.125ZM22.5 25.875H15V34.5L12 32.5863L9 34.5V25.875H1.5C0.675 25.875 0 26.5219 0 27.3125V44.5625C0 45.3531 0.675 46 1.5 46H22.5C23.325 46 24 45.3531 24 44.5625V27.3125C24 26.5219 23.325 25.875 22.5 25.875Z" fill="#272932"/>
</svg>
